<?xml version="1.0" encoding="utf-8"?>
<!-- Generator: Adobe Illustrator 26.0.1, SVG Export Plug-In . SVG Version: 6.00 Build 0)  -->
<svg version="1.1" id="Layer_1" xmlns="http://www.w3.org/2000/svg" xmlns:xlink="http://www.w3.org/1999/xlink" x="0px" y="0px"
	 viewBox="0 0 204.9 26.5" style="enable-background:new 0 0 204.9 26.5;" xml:space="preserve">
<style type="text/css">
	.st0{fill:none;}
	.st1{fill:#969696;}
</style>
<rect x="-53" y="-15.9" class="st0" width="287" height="70"/>
<rect x="30.9" y="21.5" transform="matrix(6.123234e-17 -1 1 6.123234e-17 9.4581 54.6979)" class="st1" width="2.3" height="2.3"/>
<path class="st1" d="M31,26H13.3c0,0,0,0,0,0v-2.2c0,0,0,0,0,0h19.9c0,0,0,0,0,0v0C33.2,25,32.2,26,31,26z"/>
<path class="st1" d="M11,23.7V2.9h2.3V26h0C12,26,11,25,11,23.7z"/>
<path class="st1" d="M13.2,0.7h40.5v2.3H11v0C11,1.7,12,0.7,13.2,0.7z"/>
<path d="M27.5,25"/>
<path class="st1" d="M32.1,22.6"/>
<path d="M33.2,23.8"/>
<path class="st1" d="M56,4.4V2.9c0-1.2-1-2.3-2.3-2.3h0v3.7H56z"/>
<path class="st1" d="M30.9,24.4v-20h2.3v19.1c0,0.5-0.4,0.9-0.9,0.9H30.9z"/>
<path class="st1" d="M31.3,22.4L20.5,5.7l1.9-1.2l10.4,16c0.3,0.4,0.2,1-0.3,1.2L31.3,22.4z"/>
<rect x="12.7" y="11.8" transform="matrix(3.144657e-12 -1 1 3.144657e-12 8.2703 34.1852)" class="st1" width="17.1" height="2.3"/>
<polygon class="st1" points="35.9,4.4 38.2,4.4 42.1,21.5 40.1,21.5 "/>
<polygon class="st1" points="45.1,4.4 47,4.4 42.1,21.5 41.3,18.1 "/>
<polygon class="st1" points="49.8,21.5 51.9,21.5 47,4.4 46,7.8 "/>
<polygon class="st1" points="53.7,4.4 56,4.4 51.9,21.5 50.8,17.8 "/>
</svg>
