<?xml version="1.0" encoding="utf-8"?>
<!-- Generator: Adobe Illustrator 26.0.1, SVG Export Plug-In . SVG Version: 6.00 Build 0)  -->
<svg version="1.1" id="Layer_1" xmlns="http://www.w3.org/2000/svg" xmlns:xlink="http://www.w3.org/1999/xlink" x="0px" y="0px"
	 viewBox="0 0 204.9 26.5" style="enable-background:new 0 0 204.9 26.5;" xml:space="preserve">
<style type="text/css">
	.st0{fill:none;}
	.st1{fill:#969696;}
	.st2{font-family:'Roboto-Regular';}
	.st3{font-size:24px;}
</style>
<rect x="-53" y="-15.9" class="st0" width="287" height="70"/>
<path class="st0" d="M54.4,34.7H21.7c-3.1,0-5.6-3.6-5.6-8V11.4c0-4.4,2.5-8,5.6-8h32.8c3.1,0,5.6,3.6,5.6,8v15.3
	C60.1,31.1,57.5,34.7,54.4,34.7z"/>
<text transform="matrix(1 0 0 1 18.1155 21.4896)" class="st1 st2 st3">NW</text>
<rect x="30.9" y="21.5" transform="matrix(6.123234e-17 -1 1 6.123234e-17 9.4581 54.6979)" class="st1" width="2.3" height="2.3"/>
<path class="st1" d="M31,26H13.3c0,0,0,0,0,0v-2.2c0,0,0,0,0,0h19.9c0,0,0,0,0,0v0C33.2,25,32.2,26,31,26z"/>
<path class="st1" d="M11,23.7V2.9h2.3V26h0C12,26,11,25,11,23.7z"/>
<path class="st1" d="M13.2,0.7h40.5v2.3H11v0C11,1.7,12,0.7,13.2,0.7z"/>
<path d="M27.5,25"/>
<path class="st1" d="M32.1,22.6"/>
<path d="M33.2,23.8"/>
<path class="st1" d="M56,4.4V2.9c0-1.2-1-2.3-2.3-2.3h0v3.7H56z"/>
</svg>
